<?xml version="1.0" standalone="no"?>
<!DOCTYPE svg PUBLIC "-//W3C//DTD SVG 20010904//EN"
 "http://www.w3.org/TR/2001/REC-SVG-20010904/DTD/svg10.dtd">
<svg version="1.0" xmlns="http://www.w3.org/2000/svg"
 width="800.000000pt" height="800.000000pt" viewBox="0 0 800.000000 800.000000"
 preserveAspectRatio="xMidYMid meet">
<metadata>
Created by potrace 1.14, written by Peter Selinger 2001-2017
</metadata>
<g transform="translate(0.000000,800.000000) scale(0.100000,-0.100000)"
fill="#000000" stroke="none">
<path d="M3824 7480 c-152 -41 -265 -144 -333 -302 -11 -25 -18 -48 -16 -50 3
-2 -38 -13 -91 -23 -52 -10 -97 -22 -100 -27 -3 -5 -9 -6 -13 -3 -21 12 -371
-102 -541 -177 -79 -35 -319 -157 -330 -168 -3 -3 -34 -23 -70 -44 -36 -21
-79 -50 -97 -62 -40 -30 -48 -30 -116 1 -31 14 -66 29 -79 32 -46 12 -180 10
-222 -2 -65 -20 -146 -56 -146 -66 0 -5 -6 -9 -13 -9 -22 0 -137 -123 -137
-147 0 -7 -3 -13 -8 -13 -9 0 -42 -74 -42 -93 0 -8 -3 -17 -7 -21 -9 -9 -12
-37 -13 -124 -1 -60 5 -95 25 -162 18 -58 17 -60 -19 -103 -54 -62 -56 -64
-118 -152 -32 -44 -61 -84 -66 -90 -44 -53 -292 -505 -278 -505 2 0 -8 -26
-24 -59 -31 -63 -116 -293 -124 -332 -9 -51 -18 -59 -85 -79 -320 -95 -451
-453 -267 -725 37 -54 108 -117 162 -142 19 -9 35 -21 35 -27 1 -6 2 -31 4
-56 3 -56 15 -205 20 -245 20 -169 38 -277 65 -395 22 -94 48 -184 60 -215 5
-11 16 -45 26 -75 9 -30 39 -109 66 -175 41 -98 48 -123 39 -142 -6 -13 -15
-23 -21 -23 -6 0 -9 -4 -5 -9 3 -5 -2 -16 -10 -25 -41 -41 -75 -169 -69 -259
5 -77 18 -122 53 -182 63 -108 146 -176 256 -209 48 -15 187 -16 255 -2 34 7
38 4 136 -91 102 -99 184 -173 191 -173 3 0 10 -6 18 -13 82 -77 363 -258 520
-333 44 -22 83 -43 87 -49 4 -5 8 -7 8 -2 0 4 15 0 33 -10 17 -9 35 -17 39
-18 17 -1 28 -25 33 -75 7 -70 62 -183 117 -239 40 -40 141 -98 183 -104 11
-1 25 -5 30 -9 13 -8 156 -7 170 1 6 3 18 7 28 8 32 5 124 54 157 84 17 16 35
29 41 29 5 0 9 3 9 8 0 4 16 24 35 45 l34 37 129 -4 c70 -3 132 -6 138 -7 5
-1 12 0 17 1 18 5 74 3 84 -3 6 -4 13 -4 16 0 4 3 37 7 74 8 72 2 214 15 248
21 11 3 40 7 65 9 25 3 56 8 70 10 14 3 36 8 50 10 45 9 75 15 105 20 32 6
151 36 222 56 42 11 44 11 83 -24 44 -40 123 -84 167 -92 15 -2 42 -9 60 -14
17 -5 33 -8 35 -6 2 2 24 6 50 9 130 17 252 99 331 220 18 27 32 51 32 55 0 3
3 11 7 16 11 17 29 93 34 143 4 43 30 81 56 82 4 0 16 7 25 14 10 8 61 45 113
82 52 37 97 70 100 73 3 3 25 22 50 42 166 135 380 343 478 467 15 19 37 45
50 59 13 14 35 43 49 64 30 45 21 41 98 44 33 2 71 5 85 8 14 3 36 8 49 11 90
20 227 138 273 236 44 94 46 103 44 211 -2 111 -11 140 -68 226 l-28 42 26 73
c14 40 32 93 40 118 8 25 16 50 18 55 2 6 4 12 4 15 0 3 6 19 12 35 7 17 13
37 15 45 3 8 12 42 21 75 9 33 18 69 19 80 2 11 11 51 19 89 9 38 14 72 11 74
-2 3 0 12 4 21 5 9 11 39 15 68 3 28 8 57 10 65 9 26 23 211 27 343 2 87 3 90
33 115 94 76 189 201 200 261 3 13 5 25 7 27 1 1 2 5 3 10 1 4 4 12 7 17 10
18 3 158 -10 205 -15 54 -40 110 -59 130 -95 106 -149 139 -271 164 -9 2 -35
61 -66 152 -28 82 -59 165 -68 184 -8 19 -30 67 -48 105 -18 39 -33 72 -34 75
-2 3 -6 15 -10 28 -4 12 -11 22 -15 22 -4 0 -13 15 -20 33 -8 17 -26 51 -42
75 -15 24 -28 47 -28 52 0 5 -6 15 -12 22 -7 7 -40 54 -73 103 -32 50 -62 92
-65 95 -4 3 -18 22 -32 42 -13 21 -28 35 -31 31 -4 -3 -7 0 -7 8 -1 8 -14 29
-29 48 -28 32 -29 34 -15 68 29 68 36 256 12 298 -3 6 -8 21 -11 35 -9 38 -67
122 -112 163 -38 35 -155 105 -155 92 0 -3 -9 -1 -20 5 -31 16 -140 19 -190 4
-25 -8 -46 -13 -48 -13 -7 2 -69 -26 -92 -41 -14 -10 -34 -16 -45 -15 -16 1
-111 52 -195 105 -8 5 -30 17 -47 25 -80 37 -109 49 -115 47 -5 -1 -8 3 -8 8
0 6 -7 10 -15 10 -9 0 -35 10 -58 21 -23 12 -42 21 -42 20 0 -3 -19 4 -90 31
-27 11 -50 19 -50 18 0 -1 -26 7 -65 21 -14 5 -34 10 -45 12 -11 2 -27 7 -35
10 -13 4 -44 13 -85 22 -5 2 -44 10 -85 19 -41 9 -82 18 -90 20 -21 5 -152 23
-177 25 -7 1 -13 6 -13 13 0 34 -69 147 -122 200 -30 30 -128 101 -128 93 0
-3 -13 1 -29 9 -62 33 -181 40 -267 16z m186 -332 c12 -7 30 -30 41 -50 55
-106 -20 -240 -136 -242 -50 -1 -90 23 -119 73 -16 28 -19 48 -16 124 1 9 6
17 11 17 6 0 8 4 5 9 -9 13 69 80 101 87 16 3 33 7 38 8 12 4 46 -8 75 -26z
m450 -324 c31 -4 124 -22 165 -31 17 -3 38 -6 48 -7 9 0 17 -3 17 -6 0 -4 7
-7 15 -7 73 0 517 -184 657 -272 40 -26 46 -34 42 -58 -10 -63 -12 -166 -3
-201 16 -59 51 -142 60 -142 5 0 9 -7 9 -15 0 -28 106 -124 175 -157 l68 -33
-2 -105 c-5 -195 -17 -387 -27 -423 -3 -9 -10 -15 -15 -12 -5 4 -17 8 -26 10
-10 3 -76 23 -147 44 -70 22 -140 42 -155 45 -14 2 -52 12 -84 20 -31 9 -72
18 -90 20 -17 3 -43 7 -57 10 -108 23 -214 42 -285 51 -22 3 -53 7 -70 9 -16
3 -59 7 -95 10 -36 3 -94 8 -130 12 -36 3 -118 7 -182 8 -71 0 -118 5 -118 11
0 7 -3 7 -8 0 -9 -13 -124 -14 -137 0 -14 14 -14 946 0 960 5 6 26 17 45 25
43 18 161 134 181 178 7 18 17 32 20 32 4 0 9 9 12 21 5 18 11 19 49 14 24 -4
54 -9 68 -11z m-935 -64 c52 -79 116 -139 182 -172 46 -23 63 -36 64 -52 1
-11 2 -227 3 -479 1 -307 -2 -461 -9 -467 -6 -5 -48 -12 -95 -15 -158 -13
-175 -16 -300 -39 -38 -8 -70 -11 -70 -9 0 3 -6 0 -13 -6 -8 -6 -16 -9 -19 -6
-4 5 -41 -2 -173 -31 -11 -2 -29 -6 -40 -8 -11 -2 -38 -9 -60 -14 -22 -6 -51
-13 -65 -16 -25 -4 -188 -49 -245 -67 -16 -5 -79 -25 -140 -45 -60 -20 -114
-37 -120 -38 -5 -2 -23 -8 -38 -14 -16 -7 -33 -12 -38 -12 -5 0 -29 -10 -52
-21 -23 -12 -44 -22 -47 -22 -8 1 -32 -8 -92 -34 -65 -29 -80 -27 -84 8 -16
175 -27 481 -18 511 3 9 27 24 54 34 28 10 50 21 50 25 0 4 8 10 18 13 36 12
129 116 162 183 51 102 64 199 47 343 -4 34 -2 36 62 74 36 22 68 43 69 48 2
4 12 8 23 8 10 0 19 3 19 8 0 4 10 12 23 18 70 34 153 80 159 89 4 5 8 6 8 2
0 -4 10 -2 23 5 12 7 24 13 27 13 3 1 24 11 47 23 23 12 49 22 58 22 8 0 15 4
15 9 0 5 10 11 23 14 12 3 88 28 169 56 80 28 179 58 220 67 40 9 78 20 83 24
6 4 18 6 27 5 10 -2 20 1 23 6 11 17 30 4 60 -41z m2394 -278 c41 -30 53 -61
47 -125 -7 -95 -76 -161 -162 -155 -63 4 -118 75 -110 141 17 128 138 204 225
139z m-3906 -161 c68 -42 89 -134 46 -210 -29 -53 -108 -95 -160 -86 -80 14
-133 76 -132 156 0 127 139 206 246 140z m4032 -401 c-3 -5 -2 -10 2 -10 5 0
34 -34 64 -75 29 -42 69 -96 87 -120 17 -24 32 -47 32 -50 0 -4 13 -25 29 -48
72 -106 231 -459 262 -580 17 -68 4 -74 -61 -31 -56 36 -407 214 -419 212 -15
-3 -61 23 -62 34 -3 27 -1 55 6 108 4 30 9 75 10 100 2 25 6 95 10 155 4 61 9
153 10 205 3 116 2 110 21 110 8 0 12 -4 9 -10z m-4310 -297 c6 -169 15 -336
20 -363 3 -14 7 -63 11 -110 3 -47 7 -91 10 -99 6 -18 -24 -51 -47 -51 -9 0
-19 -3 -21 -7 -1 -5 -37 -26 -78 -47 -41 -22 -77 -42 -80 -45 -3 -3 -18 -13
-35 -21 -41 -21 -174 -102 -271 -166 -78 -52 -104 -63 -104 -46 0 14 52 167
66 195 8 15 12 27 10 27 -13 0 129 293 197 410 56 95 144 228 164 248 7 7 13
17 13 22 0 5 6 15 13 22 6 7 25 31 41 53 37 51 78 96 84 91 2 -2 5 -53 7 -113z
m2755 -338 c52 -3 115 -7 140 -10 89 -8 145 -15 170 -19 14 -3 44 -7 68 -10
107 -15 131 -19 197 -33 39 -8 79 -17 90 -18 11 -2 29 -6 40 -10 11 -3 47 -12
80 -19 84 -20 219 -60 288 -84 31 -11 57 -17 57 -14 0 4 5 -1 11 -11 9 -15 4
-110 -7 -128 -2 -3 -6 -20 -9 -37 -3 -18 -8 -47 -11 -64 -3 -18 -8 -42 -10
-53 -2 -11 -8 -38 -14 -60 -12 -44 -25 -94 -39 -152 -21 -89 -117 -386 -152
-468 -7 -16 -14 -34 -14 -40 -2 -13 -6 -23 -83 -200 -35 -82 -73 -171 -84
-197 -12 -27 -25 -48 -29 -48 -5 0 -9 -7 -9 -15 0 -9 -11 -38 -25 -65 -28 -56
-38 -57 -104 -16 -23 15 -71 41 -109 60 -143 71 -198 100 -216 115 -10 9 -20
15 -22 14 -5 -3 -68 24 -77 34 -5 4 -12 8 -15 8 -4 1 -18 7 -32 15 -14 7 -65
34 -113 59 l-88 46 -3 85 c-2 47 -5 92 -8 100 -3 8 -9 29 -13 45 -21 77 -127
195 -206 230 -24 11 -49 24 -55 30 -7 7 -10 156 -10 469 1 439 2 459 20 466
20 7 240 4 396 -5z m-714 -465 c1 -245 -1 -454 -3 -465 -3 -13 -23 -30 -53
-44 -27 -13 -72 -46 -99 -73 -94 -93 -144 -212 -145 -352 l-1 -79 -105 -69
c-58 -38 -113 -71 -122 -75 -10 -3 -18 -9 -18 -13 0 -4 -13 -13 -30 -20 -16
-7 -30 -15 -30 -19 0 -3 -20 -17 -45 -31 -25 -14 -45 -28 -45 -32 0 -5 -5 -8
-12 -8 -6 0 -26 -11 -44 -25 -18 -14 -35 -25 -38 -25 -5 0 -81 -49 -156 -100
-91 -62 -135 -88 -144 -84 -32 13 -263 489 -331 684 -14 41 -30 84 -35 95 -11
26 -22 57 -26 70 -1 6 -14 51 -29 100 -14 50 -28 97 -30 105 -2 8 -11 40 -19
72 -8 31 -17 67 -20 80 -3 12 -8 34 -11 48 -9 36 -24 101 -30 130 -3 14 -8 36
-11 48 -2 13 -7 41 -10 62 -5 36 -4 38 40 59 25 11 48 21 51 21 6 0 72 28 120
50 11 6 52 22 90 36 39 14 99 37 135 51 36 13 72 26 81 28 9 2 39 11 65 20 27
9 54 18 59 19 6 1 37 10 70 20 33 10 68 20 78 22 44 10 54 13 80 23 15 6 27 9
27 6 0 -2 23 3 51 11 28 9 57 13 64 10 8 -3 15 -1 17 4 2 5 21 11 43 13 22 3
60 10 85 16 57 13 93 19 150 26 91 11 136 17 170 25 19 4 64 7 100 6 l65 -1 1
-445z m2204 100 c0 -5 5 -10 11 -10 11 0 181 -80 189 -89 3 -3 41 -25 85 -48
78 -40 80 -42 77 -75 -13 -141 -8 -187 29 -273 38 -90 155 -202 221 -212 44
-7 49 -24 43 -155 -6 -136 -9 -173 -25 -268 -5 -36 -13 -81 -15 -100 -5 -31
-9 -49 -22 -100 -2 -8 -5 -26 -7 -40 -2 -14 -6 -32 -9 -40 -3 -8 -11 -35 -18
-60 -16 -65 -77 -250 -94 -287 -8 -17 -15 -38 -15 -47 0 -9 -6 -17 -12 -17 -7
-1 -26 -3 -43 -4 -71 -5 -167 -44 -245 -98 l-35 -25 -105 55 c-58 30 -111 60
-117 65 -7 6 -13 8 -13 5 0 -3 -37 14 -82 38 -46 25 -151 79 -235 121 -83 42
-154 82 -156 88 -3 6 23 68 57 137 71 147 121 256 143 313 8 23 24 60 34 83
10 24 19 45 19 47 0 2 8 21 17 42 9 22 18 44 19 49 1 6 25 78 52 160 46 136
79 245 86 285 2 8 6 22 9 30 7 17 43 162 51 200 2 14 7 32 10 40 3 8 8 31 11
50 6 35 14 81 20 110 2 8 4 21 4 28 1 14 61 17 61 2z m860 -170 c20 -11 39
-45 47 -84 10 -56 -49 -154 -105 -174 -35 -12 -88 -8 -108 9 -25 21 -41 71
-37 113 12 114 115 183 203 136z m-4994 -99 c3 -14 8 -32 10 -40 3 -8 7 -30
10 -50 5 -30 19 -89 39 -161 15 -54 38 -137 40 -150 4 -19 105 -317 118 -350
6 -14 11 -27 11 -30 12 -61 213 -494 300 -645 25 -44 46 -86 46 -95 0 -8 -22
-27 -48 -43 -26 -15 -73 -44 -104 -65 -69 -45 -223 -143 -247 -157 -9 -5 -48
-31 -88 -57 -39 -27 -75 -48 -81 -48 -6 0 -12 -3 -14 -7 -5 -12 -95 -73 -107
-73 -6 0 -11 -4 -11 -8 0 -5 -10 -14 -22 -20 -13 -6 -37 -20 -53 -31 l-31 -20
-49 25 c-74 38 -151 55 -234 53 l-74 -2 -17 34 c-14 28 -39 90 -86 214 -10 27
-10 26 -18 60 -4 17 -12 41 -17 55 -5 14 -11 34 -13 46 -2 11 -11 49 -19 85
-48 199 -68 354 -71 533 l-1 89 71 36 c107 54 221 183 243 273 1 4 8 22 15 40
12 29 14 113 6 241 -2 22 13 36 73 73 27 16 63 38 81 49 18 11 54 33 82 49 27
16 61 37 76 47 15 11 30 19 34 19 3 0 19 9 35 21 16 11 29 17 29 12 0 -4 4 -3
8 3 11 17 45 32 59 27 7 -3 16 -17 19 -32z m-845 -290 c74 -69 50 -194 -47
-241 -86 -42 -173 -17 -213 63 -16 30 -22 97 -9 97 4 0 8 7 8 16 0 28 77 92
123 102 48 10 104 -5 138 -37z m3022 -318 c51 -47 54 -135 7 -199 -17 -23 -65
-57 -89 -62 -37 -8 -81 -8 -81 0 0 4 -5 8 -10 8 -6 0 -19 8 -30 18 -54 50 -47
157 15 215 51 47 146 57 188 20z m227 -454 c3 -3 158 -83 345 -178 187 -95
348 -180 358 -190 15 -15 16 -19 2 -36 -9 -11 -40 -59 -70 -107 -76 -120 -247
-359 -330 -461 -6 -6 -30 -37 -55 -67 -25 -30 -49 -60 -55 -66 -5 -6 -35 -39
-65 -73 -71 -80 -432 -441 -454 -453 -13 -7 -31 1 -74 34 -31 23 -59 45 -62
48 -3 3 -30 24 -60 47 -30 23 -67 53 -81 65 -15 13 -49 41 -75 63 -27 22 -65
57 -86 78 -20 20 -42 37 -48 37 -6 0 -8 5 -5 10 3 6 -1 10 -9 10 -9 0 -16 7
-16 17 0 9 -3 14 -6 11 -8 -9 -235 232 -304 322 -14 18 -37 46 -51 63 -35 39
-41 46 -69 87 -14 19 -35 45 -48 57 -12 12 -22 25 -21 28 1 10 -45 75 -53 75
-22 0 -3 31 30 51 20 13 42 27 47 32 6 4 82 55 170 112 88 57 165 108 171 114
7 5 15 7 18 4 3 -4 6 -1 6 5 0 7 7 12 15 12 8 0 15 4 15 9 0 5 12 15 28 22 32
17 201 129 220 146 6 6 21 15 32 18 11 3 20 10 20 15 0 4 9 6 20 3 11 -3 20
-9 20 -14 0 -5 3 -8 8 -7 4 1 18 -4 32 -12 70 -39 196 -54 295 -36 59 10 157
61 198 102 12 11 38 13 47 3z m1043 -530 c23 -12 44 -21 46 -20 2 2 7 -1 10
-6 3 -4 123 -66 266 -138 143 -71 262 -133 263 -137 2 -5 9 -8 16 -8 8 0 25
-9 38 -20 23 -18 25 -25 21 -74 -5 -60 16 -149 48 -204 26 -45 24 -58 -12
-101 -16 -20 -38 -45 -47 -57 -58 -72 -129 -148 -230 -247 -156 -152 -160
-156 -166 -149 -3 3 -6 1 -6 -5 0 -6 -26 -30 -57 -54 -32 -24 -69 -54 -83 -66
-14 -13 -28 -23 -32 -23 -3 0 -13 -6 -20 -13 -25 -23 -77 -57 -88 -57 -5 0
-10 -3 -10 -7 0 -5 -13 -15 -28 -24 -27 -15 -30 -15 -91 22 -35 21 -66 38 -70
37 -3 0 -8 1 -11 2 -120 46 -337 -5 -428 -101 -15 -16 -36 -29 -47 -29 -25 0
-383 181 -389 196 -3 7 77 95 177 196 100 102 195 200 211 219 57 68 131 154
141 165 6 6 33 40 60 74 28 34 62 77 78 95 15 18 27 37 27 43 0 6 4 12 9 14 8
2 69 83 119 155 101 148 132 195 132 201 0 5 8 17 18 28 9 10 26 36 37 57 11
20 23 37 28 37 4 0 5 5 2 10 -10 17 24 11 68 -11z m-2675 -221 c20 -38 40 -68
73 -108 12 -14 35 -44 52 -67 17 -24 34 -43 39 -43 4 0 8 -6 8 -12 0 -12 61
-87 118 -146 12 -12 22 -25 22 -27 0 -10 225 -238 338 -343 105 -99 127 -118
186 -165 22 -18 47 -40 58 -49 10 -10 22 -18 27 -18 5 0 11 -3 13 -7 2 -5 26
-26 53 -48 75 -59 75 -57 6 -105 -12 -8 -54 -39 -93 -67 -39 -29 -94 -67 -122
-85 -28 -18 -52 -36 -54 -40 -2 -5 -10 -8 -18 -8 -8 0 -14 -4 -14 -10 0 -5 -7
-10 -15 -10 -8 0 -15 -4 -15 -8 0 -5 -11 -14 -24 -20 -20 -9 -30 -6 -59 14
-20 13 -41 24 -46 24 -6 0 -11 3 -11 8 0 27 -223 52 -278 31 -15 -6 -38 -13
-52 -16 -37 -7 -120 -57 -169 -102 -43 -39 -44 -40 -77 -26 -132 55 -468 251
-525 307 -8 8 -29 24 -46 36 -39 28 -94 76 -182 159 -36 35 -69 63 -73 63 -5
0 -8 7 -8 15 0 8 -5 15 -10 15 -11 0 -2 51 10 60 31 24 66 201 49 255 -7 22
14 55 49 77 20 12 109 70 197 128 88 58 165 107 170 109 6 2 24 15 41 28 17
12 34 23 37 23 4 0 15 7 24 14 47 38 280 186 294 186 9 0 21 -10 27 -22z
m3824 -37 c4 -1 18 -13 32 -28 21 -22 24 -35 22 -74 -6 -81 -61 -148 -134
-164 -117 -25 -158 130 -59 225 29 28 83 49 112 45 11 -2 23 -4 27 -4z m-5039
-442 c44 -23 66 -52 73 -95 4 -27 2 -49 -5 -58 -6 -7 -8 -15 -6 -18 11 -11
-63 -76 -100 -88 -189 -62 -272 175 -90 256 37 16 99 18 128 3z m2589 -811
c14 -10 31 -18 37 -18 6 0 11 -3 11 -7 0 -5 10 -13 23 -18 47 -22 112 -60 119
-70 4 -5 8 -7 8 -4 0 3 59 -24 132 -60 113 -57 145 -78 123 -82 -2 0 -43 -11
-90 -24 -47 -13 -88 -24 -90 -24 -3 0 -18 -2 -33 -5 -15 -3 -39 -8 -54 -11
-16 -3 -38 -7 -50 -9 -13 -3 -36 -7 -53 -10 -16 -3 -41 -7 -55 -10 -83 -15
-161 -20 -375 -20 -261 -1 -280 3 -200 49 34 19 239 158 270 182 6 5 21 15 35
24 14 9 36 27 50 39 14 12 41 34 60 49 19 14 43 34 54 43 20 18 36 15 78 -14z
m996 -129 c67 -42 41 -168 -47 -223 -40 -26 -118 -29 -145 -7 -21 18 -38 75
-32 111 15 97 147 168 224 119z m-1972 -195 c87 -41 66 -182 -35 -231 -104
-50 -195 -2 -190 101 5 99 133 173 225 130z"/>
</g>
</svg>
